<?xml version="1.0" standalone="no"?>
<!DOCTYPE svg PUBLIC "-//W3C//DTD SVG 20010904//EN"
 "http://www.w3.org/TR/2001/REC-SVG-20010904/DTD/svg10.dtd">
<svg version="1.0" xmlns="http://www.w3.org/2000/svg"
 width="256.000000pt" height="256.000000pt" viewBox="0 0 256.000000 256.000000"
 preserveAspectRatio="xMidYMid meet">

<g transform="translate(0.000000,256.000000) scale(0.100000,-0.100000)"
fill="#000000" stroke="none">
<path d="M280 2260 l0 -300 335 0 336 0 -3 -67 -3 -68 -132 -3 -133 -3 0 -394
0 -395 -85 0 -85 0 0 395 0 395 -115 0 -115 0 0 -409 0 -409 178 -5 c106 -3
193 -10 217 -18 54 -18 137 -102 153 -155 17 -58 15 -187 -3 -231 -45 -106
-115 -149 -268 -163 -56 -5 -114 -9 -129 -10 l-28 0 0 -175 0 -175 -60 0 -60
0 0 -30 0 -30 1000 0 1000 0 0 143 c0 139 -1 143 -30 193 -41 72 -72 94 -131
94 l-49 0 0 -185 0 -185 -105 0 -105 0 0 465 0 465 210 0 210 0 0 418 0 417
-363 363 -362 362 -638 0 -637 0 0 -300z m960 -765 l0 -465 -85 0 -85 0 0 458
c0 252 3 462 7 465 3 4 42 7 85 7 l78 0 0 -465z m655 448 c4 -10 80 -211 170
-448 90 -236 167 -438 170 -448 7 -16 0 -18 -85 -15 l-92 3 -45 128 -45 127
-173 0 -173 0 -42 -118 c-23 -65 -45 -123 -49 -130 -5 -9 -32 -12 -89 -10
l-80 3 170 463 171 462 93 0 c78 0 93 -3 99 -17z m-343 -971 c110 -54 183
-150 218 -287 68 -265 -49 -541 -255 -604 -192 -60 -387 -22 -497 96 -75 81
-112 172 -124 306 -17 194 57 375 190 465 78 52 124 62 272 59 124 -2 133 -4
196 -35z"/>
<path d="M1736 1616 c-32 -94 -61 -177 -64 -183 -3 -10 25 -13 122 -13 69 0
126 1 126 3 0 1 -28 84 -63 183 l-62 182 -59 -172z"/>
<path d="M1265 836 c-52 -19 -109 -84 -132 -149 -25 -71 -25 -232 0 -302 75
-216 337 -220 413 -6 39 113 25 288 -31 373 -54 81 -160 116 -250 84z"/>
<path d="M392 714 l3 -129 75 1 c120 2 160 31 160 118 0 97 -37 128 -158 134
l-83 5 3 -129z"/>
<path d="M2070 720 l0 -122 78 7 c42 4 89 14 105 22 26 13 27 16 27 98 0 102
-5 106 -127 113 l-83 5 0 -123z"/>
</g>
</svg>
